<svg xmlns="http://www.w3.org/2000/svg" xmlns:xlink="http://www.w3.org/1999/xlink" width="276.217" height="99.484" viewBox="0 0 276.217 99.484">
  <defs>
    <linearGradient id="linear-gradient" x1="0.5" x2="0.5" y2="1" gradientUnits="objectBoundingBox">
      <stop offset="0" stop-color="blue"/>
      <stop offset="1" stop-color="red"/>
    </linearGradient>
  </defs>
  <g id="Group_15" data-name="Group 15" transform="translate(-197 -165)">
    <rect id="Rectangle_26" data-name="Rectangle 26" width="93" height="269" transform="translate(200.5 262.5) rotate(-90)" fill="url(#linear-gradient)"/>
    <g id="Group_5" data-name="Group 5" transform="translate(160.395 -9.759)">
      <path id="Path_8" data-name="Path 8" d="M126.1,234.4c0,3.475,2.464,5.6,6.05,5.6,5.49,0,10.757-4.818,12.437-10.981l.56-2.016a25.124,25.124,0,0,0-7.955-1.345C130.466,225.661,126.1,228.911,126.1,234.4Z" transform="translate(21.884 12.447)" fill="#fff"/>
      <path id="Path_9" data-name="Path 9" d="M36.605,174.759v99.484H312.822V174.759Zm36.527,91.024c-11.541,0-22.633-4.034-29.916-10.531l10.533-12.438c5.826,5.267,14,8.18,20.168,8.18,3.586,0,5.378-1.457,5.378-3.7,0-2.128-2.352-3.36-8.291-5.714-9.636-3.809-17.03-8.067-17.03-17.7,0-12.1,9.747-21.513,26.443-21.513,10.981,0,20.728,4.035,26.219,8.516l-10.2,12.773c-5.267-3.922-11.653-6.5-17.143-6.5-3.473,0-5.266,1.344-5.266,3.474,0,2.016,2.129,3.248,8.4,5.714,8.739,3.473,16.919,7.619,16.919,17.7C99.351,255.7,90.61,265.783,73.132,265.783Zm23.977-1.456,21.962-81.793h21.288L118.4,264.327Zm62.858,0,1.681-6.5c-5.155,4.819-10.42,7.732-17.479,7.732-9.971,0-16.918-6.387-16.918-16.471,0-13.334,10.644-21.4,26.667-21.4a52.433,52.433,0,0,1,15.35,2.353l.224-.784a16.111,16.111,0,0,0,.56-3.7c0-3.92-3.025-6.5-10.419-6.5a48.331,48.331,0,0,0-16.359,3.025l-3.025-15.463a75.741,75.741,0,0,1,23.866-3.7c18.152,0,27,7.171,27,19.272a34.9,34.9,0,0,1-1.233,8.739l-8.963,33.39Zm94.9-32.942-8.739,32.942h-21.29l8.516-31.71a19.987,19.987,0,0,0,.672-4.93c0-4.034-2.352-6.386-6.722-6.386-5.939,0-9.412,4.032-11.318,10.981l-8.627,32.044H186.076l16.246-60.616h21.289l-1.905,6.947c4.146-4.37,10.2-8.292,17.366-8.292,10.981,0,17.592,6.947,17.592,18.152A44.827,44.827,0,0,1,254.872,231.385ZM301.6,220.854H287.478L282.323,239.9a18.555,18.555,0,0,0-.56,3.7c0,2.465,1.457,3.811,4.818,3.811a24.142,24.142,0,0,0,8.067-1.681l-4.706,17.7a38.307,38.307,0,0,1-12.549,2.129c-12.325,0-18.376-5.379-18.376-14.342a35.71,35.71,0,0,1,1.12-7.956l6.051-22.408h-7.171l4.594-17.143h7.171l4.146-15.35h21.289l-4.146,15.35h14.117Z" transform="translate(0)" fill="#fff"/>
    </g>
  </g>
</svg>
